<svg width="512" height="219" viewBox="0 0 512 219" fill="none" xmlns="http://www.w3.org/2000/svg">
<g clip-path="url(#clip0)">
<path d="M78.9594 144.72C77.2794 144.72 75.3594 145.44 72.9594 146.16C70.5594 147.12 67.4394 147.84 64.5594 147.84C59.5194 147.84 56.1594 145.92 54.2394 142.32C51.8394 137.76 51.8394 130.56 51.8394 125.28V83.28H75.5994C82.5594 83.28 86.1594 79.68 86.1594 72.48C86.1594 65.28 82.5594 61.68 75.5994 61.68H51.8394V37.92C51.8394 30.96 47.5194 27.36 38.8794 27.36C30.2394 27.36 25.9194 30.96 25.9194 37.92V61.68H14.6394C7.67938 61.68 4.07938 65.28 4.07938 72.48C4.07938 79.68 7.67938 83.28 14.6394 83.28H25.9194V125.28C25.9194 136.08 26.1594 146.16 30.7194 154.32C35.7594 163.44 44.6394 169.92 60.9594 169.92C69.8394 169.92 78.2394 167.76 83.5194 164.64C87.5994 162.24 88.7994 159.36 88.7994 156.48C88.7994 152.4 86.1594 144.72 78.9594 144.72ZM126.629 25.68C126.629 16.32 119.669 9.59999 110.309 9.59999C100.949 9.59999 93.9894 16.32 93.9894 25.68C93.9894 35.04 100.949 41.76 110.309 41.76C119.669 41.76 126.629 35.04 126.629 25.68ZM123.269 70.08C123.269 63.12 118.949 59.52 110.309 59.52C101.669 59.52 97.3494 63.12 97.3494 70.08V158.64C97.3494 165.6 101.669 169.2 110.309 169.2C118.949 169.2 123.269 165.6 123.269 158.64V70.08ZM134.846 115.44C134.846 149.28 155.246 169.44 182.126 169.44C194.366 169.44 204.206 165.36 211.406 157.44V160.8C211.406 166.08 214.766 169.2 222.686 169.2C231.326 169.2 235.406 165.84 235.406 158.64V15.12C235.406 8.16 231.086 4.55999 222.446 4.55999C213.806 4.55999 209.486 8.16 209.486 15.12V64.56C203.966 60.96 196.526 59.04 187.886 59.04C155.966 59.04 134.846 80.88 134.846 115.44ZM209.486 85.92V141.36C203.966 146.16 197.486 148.56 190.046 148.56C173.006 148.56 161.486 135.84 161.486 114C161.486 92.64 172.766 80.16 191.006 80.16C197.966 80.16 204.206 82.08 209.486 85.92ZM335.116 59.52C324.076 59.52 322.876 64.56 321.436 71.28C316.156 95.28 305.836 124.08 298.156 139.92L271.276 70.32C268.396 62.64 265.036 59.52 255.436 59.52C246.076 59.52 243.196 63.12 243.196 67.44C243.196 70.08 244.396 72.96 245.596 75.84L283.036 165.6C279.676 171.6 272.236 181.68 262.156 192C258.556 195.6 255.196 199.2 255.196 203.52C255.196 210.24 262.396 215.52 269.116 215.52C273.916 215.52 277.996 212.64 284.236 204.96C311.596 172.08 333.916 121.44 343.756 84.48C345.916 76.56 346.876 71.28 346.876 67.92C346.876 63.12 344.476 59.52 335.116 59.52ZM369.401 153.6C369.401 144.24 362.681 137.28 353.081 137.28C343.481 137.28 336.761 144.24 336.761 153.6C336.761 162.96 343.481 169.92 353.081 169.92C362.681 169.92 369.401 162.96 369.401 153.6ZM411.564 25.68C411.564 16.32 404.604 9.59999 395.244 9.59999C385.884 9.59999 378.924 16.32 378.924 25.68C378.924 35.04 385.884 41.76 395.244 41.76C404.604 41.76 411.564 35.04 411.564 25.68ZM382.284 142.56C382.284 162.24 382.044 179.28 369.804 192.48C366.684 196.08 363.324 198.48 363.324 203.28C363.324 210 370.764 215.52 377.244 215.52C381.084 215.52 384.444 213.6 388.524 209.52C407.724 190.32 408.204 166.32 408.204 141.36V70.08C408.204 63.12 403.884 59.52 395.244 59.52C386.604 59.52 382.284 63.12 382.284 70.08V142.56ZM476.18 138C476.18 144.24 470.18 148.08 461.06 148.08C452.9 148.08 446.9 145.44 439.46 141.36C435.62 139.2 433.7 137.76 431.06 137.76C423.86 137.76 419.78 144.96 419.78 150C419.78 154.08 422.42 157.68 427.7 161.04C437.06 167.04 448.58 169.92 460.82 169.92C486.02 169.92 501.38 157.2 501.38 137.28C501.38 99.84 445.7 106.32 445.7 89.76C445.7 84.24 450.74 80.64 459.62 80.64C466.58 80.64 473.06 82.56 479.54 85.92C484.34 88.32 486.74 89.52 489.14 89.52C496.1 89.52 499.94 82.32 499.94 77.28C499.94 73.2 497.54 69.84 492.02 66.48C483.86 61.68 472.34 58.8 460.58 58.8C435.62 58.8 420.74 71.52 420.74 90.48C420.74 127.2 476.18 120.72 476.18 138Z" fill="#FF7765"/>
</g>
<defs>
<clipPath id="clip0">
<rect width="512" height="219" fill="white"/>
</clipPath>
</defs>
</svg>
