<svg width="498" height="212" viewBox="0 0 498 212" fill="none" xmlns="http://www.w3.org/2000/svg">
<path d="M74.9594 140.72C73.2794 140.72 71.3594 141.44 68.9594 142.16C66.5594 143.12 63.4394 143.84 60.5594 143.84C55.5194 143.84 52.1594 141.92 50.2394 138.32C47.8394 133.76 47.8394 126.56 47.8394 121.28V79.28H71.5994C78.5594 79.28 82.1594 75.68 82.1594 68.48C82.1594 61.28 78.5594 57.68 71.5994 57.68H47.8394V33.92C47.8394 26.96 43.5194 23.36 34.8794 23.36C26.2394 23.36 21.9194 26.96 21.9194 33.92V57.68H10.6394C3.67938 57.68 0.0793812 61.28 0.0793812 68.48C0.0793812 75.68 3.67938 79.28 10.6394 79.28H21.9194V121.28C21.9194 132.08 22.1594 142.16 26.7194 150.32C31.7594 159.44 40.6394 165.92 56.9594 165.92C65.8394 165.92 74.2394 163.76 79.5194 160.64C83.5994 158.24 84.7994 155.36 84.7994 152.48C84.7994 148.4 82.1594 140.72 74.9594 140.72ZM122.629 21.68C122.629 12.32 115.669 5.59999 106.309 5.59999C96.9494 5.59999 89.9894 12.32 89.9894 21.68C89.9894 31.04 96.9494 37.76 106.309 37.76C115.669 37.76 122.629 31.04 122.629 21.68ZM119.269 66.08C119.269 59.12 114.949 55.52 106.309 55.52C97.6694 55.52 93.3494 59.12 93.3494 66.08V154.64C93.3494 161.6 97.6694 165.2 106.309 165.2C114.949 165.2 119.269 161.6 119.269 154.64V66.08ZM130.846 111.44C130.846 145.28 151.246 165.44 178.126 165.44C190.366 165.44 200.206 161.36 207.406 153.44V156.8C207.406 162.08 210.766 165.2 218.686 165.2C227.326 165.2 231.406 161.84 231.406 154.64V11.12C231.406 4.16 227.086 0.559987 218.446 0.559987C209.806 0.559987 205.486 4.16 205.486 11.12V60.56C199.966 56.96 192.526 55.04 183.886 55.04C151.966 55.04 130.846 76.88 130.846 111.44ZM205.486 81.92V137.36C199.966 142.16 193.486 144.56 186.046 144.56C169.006 144.56 157.486 131.84 157.486 110C157.486 88.64 168.766 76.16 187.006 76.16C193.966 76.16 200.206 78.08 205.486 81.92ZM331.116 55.52C320.076 55.52 318.876 60.56 317.436 67.28C312.156 91.28 301.836 120.08 294.156 135.92L267.276 66.32C264.396 58.64 261.036 55.52 251.436 55.52C242.076 55.52 239.196 59.12 239.196 63.44C239.196 66.08 240.396 68.96 241.596 71.84L279.036 161.6C275.676 167.6 268.236 177.68 258.156 188C254.556 191.6 251.196 195.2 251.196 199.52C251.196 206.24 258.396 211.52 265.116 211.52C269.916 211.52 273.996 208.64 280.236 200.96C307.596 168.08 329.916 117.44 339.756 80.48C341.916 72.56 342.876 67.28 342.876 63.92C342.876 59.12 340.476 55.52 331.116 55.52ZM365.401 149.6C365.401 140.24 358.681 133.28 349.081 133.28C339.481 133.28 332.761 140.24 332.761 149.6C332.761 158.96 339.481 165.92 349.081 165.92C358.681 165.92 365.401 158.96 365.401 149.6ZM407.564 21.68C407.564 12.32 400.604 5.59999 391.244 5.59999C381.884 5.59999 374.924 12.32 374.924 21.68C374.924 31.04 381.884 37.76 391.244 37.76C400.604 37.76 407.564 31.04 407.564 21.68ZM378.284 138.56C378.284 158.24 378.044 175.28 365.804 188.48C362.684 192.08 359.324 194.48 359.324 199.28C359.324 206 366.764 211.52 373.244 211.52C377.084 211.52 380.444 209.6 384.524 205.52C403.724 186.32 404.204 162.32 404.204 137.36V66.08C404.204 59.12 399.884 55.52 391.244 55.52C382.604 55.52 378.284 59.12 378.284 66.08V138.56ZM472.18 134C472.18 140.24 466.18 144.08 457.06 144.08C448.9 144.08 442.9 141.44 435.46 137.36C431.62 135.2 429.7 133.76 427.06 133.76C419.86 133.76 415.78 140.96 415.78 146C415.78 150.08 418.42 153.68 423.7 157.04C433.06 163.04 444.58 165.92 456.82 165.92C482.02 165.92 497.38 153.2 497.38 133.28C497.38 95.84 441.7 102.32 441.7 85.76C441.7 80.24 446.74 76.64 455.62 76.64C462.58 76.64 469.06 78.56 475.54 81.92C480.34 84.32 482.74 85.52 485.14 85.52C492.1 85.52 495.94 78.32 495.94 73.28C495.94 69.2 493.54 65.84 488.02 62.48C479.86 57.68 468.34 54.8 456.58 54.8C431.62 54.8 416.74 67.52 416.74 86.48C416.74 123.2 472.18 116.72 472.18 134Z" fill="#FF7765"/>
</svg>
